<?xml version="1.0" encoding="utf-8"?>
<!-- Generator: Adobe Illustrator 24.1.1, SVG Export Plug-In . SVG Version: 6.00 Build 0)  -->
<svg version="1.1" id="Layer_1" xmlns="http://www.w3.org/2000/svg" xmlns:xlink="http://www.w3.org/1999/xlink" x="0px" y="0px"
	 viewBox="0 0 595.28 841.89" style="enable-background:new 0 0 595.28 841.89;" xml:space="preserve">
<style type="text/css">
	.st0{fill:#EFE9C1;}
	.st1{fill:#3A2416;}
	.st2{fill:#F7B753;}
	.st3{fill:#88491F;stroke:#88491F;stroke-width:0.5;stroke-linecap:round;stroke-linejoin:round;stroke-miterlimit:10;}
	.st4{font-family:'Ginchiest';}
	.st5{font-size:27.8354px;}
	.st6{fill:#88491F;}
	.st7{fill:#FFFFFF;}
	.st8{fill:#F5B553;}
	.st9{font-size:72.8516px;}
	.st10{fill:#392417;}
	.st11{fill:#F3B352;}
	.st12{fill-rule:evenodd;clip-rule:evenodd;fill:#392417;}
</style>
<g>
	<path class="st0" d="M306.22,133.41c13.82,0,26.94,3.09,38.73,8.63c11.39,5.35,21.52,12.98,29.83,22.32
		c12.28-1.74,24.87-0.99,36.98,2.33c12.54,3.44,24.55,9.63,35.15,18.65c10.59,9.01,18.68,19.93,24.21,31.87
		c5.33,11.51,8.25,23.96,8.69,36.53c10.53,6.68,19.7,15.47,26.87,25.9c7.42,10.8,12.7,23.38,15.1,37.19
		c2.4,13.8,1.68,27.43-1.65,40.17c-3.22,12.31-8.87,23.76-16.49,33.66c3.81,11.94,5.26,24.64,4.13,37.33
		c-1.17,13.12-5.09,26.19-12,38.33v0.02c-6.92,12.15-16.11,22.13-26.73,29.7c-10.24,7.31-21.83,12.39-33.96,15.02
		c-4.65,11.65-11.6,22.34-20.51,31.32c-9.2,9.29-20.5,16.74-33.5,21.54c-13.01,4.8-26.38,6.45-39.29,5.34
		c-12.5-1.08-24.6-4.74-35.56-10.64c-10.96,5.9-23.06,9.57-35.56,10.64c-12.91,1.11-26.28-0.54-39.29-5.34
		c-13-4.8-24.29-12.25-33.5-21.54c-8.9-8.98-15.85-19.67-20.51-31.32c-12.14-2.63-23.72-7.7-33.96-15.02
		c-10.6-7.57-19.8-17.56-26.73-29.72c-6.91-12.14-10.84-25.21-12-38.33c-1.13-12.69,0.32-25.4,4.13-37.33
		c-7.62-9.91-13.27-21.35-16.49-33.66c-3.33-12.73-4.05-26.37-1.65-40.17c2.4-13.82,7.68-26.39,15.1-37.2
		c7.16-10.43,16.34-19.22,26.87-25.9c0.44-12.57,3.36-25.01,8.69-36.53c5.53-11.94,13.62-22.86,24.21-31.87
		c10.59-9.01,22.61-15.2,35.15-18.65c12.11-3.32,24.7-4.08,36.98-2.33c8.3-9.34,18.44-16.97,29.83-22.32
		C279.28,136.5,292.4,133.41,306.22,133.41L306.22,133.41z"/>
	<g>
		<path class="st1" d="M306.06,130.12c14.35,0,27.97,3.17,40.22,8.84c11.83,5.48,22.35,13.3,30.97,22.86
			c12.75-1.78,25.83-1.01,38.4,2.39c13.02,3.53,25.5,9.86,36.5,19.1c10.99,9.22,19.4,20.41,25.14,32.64
			c5.54,11.79,8.57,24.54,9.03,37.41c10.93,6.84,20.46,15.84,27.9,26.52c7.7,11.06,13.19,23.94,15.68,38.09
			c2.49,14.13,1.74,28.09-1.72,41.13c-3.34,12.61-9.21,24.33-17.12,34.47c3.96,12.22,5.46,25.24,4.29,38.23
			c-1.21,13.44-5.29,26.82-12.46,39.26v0.02c-7.18,12.44-16.73,22.66-27.76,30.42c-10.64,7.49-22.66,12.69-35.27,15.38
			c-4.83,11.93-12.05,22.88-21.29,32.08c-9.56,9.51-21.28,17.14-34.78,22.06c-13.51,4.92-27.39,6.61-40.8,5.47
			c-12.98-1.1-25.55-4.85-36.93-10.9c-11.38,6.04-23.95,9.8-36.93,10.9c-13.41,1.14-27.29-0.55-40.8-5.47
			c-13.5-4.91-25.23-12.55-34.78-22.06c-9.25-9.2-16.46-20.15-21.29-32.08c-12.6-2.69-24.63-7.89-35.27-15.38
			c-11.01-7.75-20.56-17.98-27.76-30.44c-7.18-12.43-11.25-25.82-12.46-39.26c-1.17-12.99,0.33-26.01,4.29-38.23
			c-7.91-10.14-13.78-21.86-17.12-34.47c-3.46-13.04-4.21-27-1.72-41.13c2.49-14.15,7.98-27.03,15.68-38.09
			c7.44-10.68,16.97-19.69,27.9-26.52c0.46-12.87,3.49-25.62,9.03-37.41c5.74-12.22,14.15-23.41,25.14-32.64
			c11-9.23,23.48-15.57,36.5-19.1c12.57-3.4,25.65-4.17,38.4-2.39c8.62-9.56,19.15-17.38,30.97-22.86
			C278.09,133.28,291.71,130.12,306.06,130.12L306.06,130.12z M342.01,148.21c-10.92-5.06-23.09-7.88-35.95-7.88
			s-25.03,2.82-35.95,7.88c-11.35,5.26-21.36,12.93-29.37,22.36l-1.88,2.22l-2.84-0.48c-12.2-2.08-24.82-1.52-36.92,1.75
			c-11.61,3.14-22.75,8.81-32.59,17.06c-9.85,8.26-17.36,18.24-22.47,29.13c-5.32,11.34-8.06,23.65-8.13,36.02l-0.02,2.91l-2.5,1.46
			c-10.66,6.24-19.96,14.77-27.12,25.06c-6.88,9.88-11.78,21.38-14,34.02c-2.23,12.66-1.57,25.15,1.52,36.78
			c3.2,12.08,9.03,23.27,16.93,32.81l1.85,2.24l-0.98,2.73c-4.17,11.68-5.82,24.19-4.7,36.64c1.08,11.98,4.72,23.94,11.15,35.06
			c6.41,11.1,14.94,20.23,24.8,27.17c10.25,7.22,21.9,12.05,34.05,14.27l2.88,0.53l1.01,2.73c4.3,11.6,11.08,22.24,19.94,31.05
			c8.54,8.49,19.01,15.31,31.07,19.7c12.05,4.39,24.47,5.89,36.49,4.87c12.48-1.06,24.51-4.85,35.25-10.96l2.51-1.43l2.51,1.43
			c10.74,6.12,22.77,9.9,35.25,10.96c12.02,1.02,24.44-0.49,36.49-4.87c12.06-4.39,22.54-11.21,31.07-19.7
			c8.86-8.82,15.64-19.45,19.94-31.05l1.01-2.73l2.88-0.53c12.15-2.21,23.8-7.05,34.05-14.27c9.85-6.93,18.38-16.07,24.8-27.19
			l0.01,0c6.42-11.12,10.06-23.07,11.14-35.05c1.12-12.45-0.53-24.96-4.7-36.64l-0.98-2.73l1.85-2.24
			c7.91-9.53,13.73-20.72,16.93-32.81c3.08-11.63,3.75-24.12,1.52-36.78c-2.23-12.64-7.12-24.14-14-34.02
			c-7.16-10.29-16.46-18.82-27.12-25.06l-2.5-1.46l-0.02-2.91c-0.07-12.37-2.81-24.68-8.13-36.02
			c-5.11-10.88-12.62-20.86-22.47-29.13c-9.84-8.25-20.98-13.92-32.59-17.06c-12.1-3.28-24.71-3.83-36.92-1.75l-2.84,0.48
			l-1.89-2.22C363.37,161.14,353.36,153.47,342.01,148.21L342.01,148.21z"/>
		<path class="st2" d="M360.25,171.29c2.55,2.53,4.71,5.1,7.04,7.86l2.6-2.2c-2.4-2.83-4.62-5.47-7.24-8.07L360.25,171.29
			L360.25,171.29z M374.58,181.36l-0.57-3.36c2.28-0.39,4.51-0.79,6.81-1.07l0.41,3.38C378.99,180.59,376.81,180.98,374.58,181.36
			L374.58,181.36z M387.86,179.79c2.22-0.08,4.44-0.06,6.66,0.05l0.17-3.4c-2.32-0.12-4.63-0.13-6.95-0.05L387.86,179.79
			L387.86,179.79z M401.16,180.47c2.19,0.3,4.4,0.7,6.55,1.2l0.76-3.32c-2.25-0.52-4.55-0.93-6.84-1.25L401.16,180.47L401.16,180.47
			z M414.14,183.43c2.09,0.64,4.23,1.47,6.24,2.31l1.32-3.14c-2.1-0.88-4.34-1.75-6.53-2.42L414.14,183.43L414.14,183.43z
			 M426.4,188.59c1.97,1.04,3.88,2.16,5.75,3.36l1.85-2.86c-1.96-1.26-3.95-2.42-6-3.51L426.4,188.59z M437.59,195.79
			c1.75,1.36,3.47,2.79,5.09,4.3l2.31-2.5c-1.71-1.57-3.48-3.06-5.31-4.48L437.59,195.79z M447.39,204.8
			c1.5,1.64,2.92,3.34,4.28,5.1l2.71-2.06c-1.41-1.84-2.91-3.63-4.47-5.33L447.39,204.8z M455.5,215.36c1.2,1.86,2.31,3.8,3.33,5.77
			l3.02-1.57c-1.07-2.05-2.23-4.08-3.48-6.02L455.5,215.36L455.5,215.36z M461.65,227.16c0.85,2.06,1.61,4.13,2.28,6.25l3.25-1.02
			c-0.69-2.21-1.5-4.4-2.39-6.54L461.65,227.16L461.65,227.16z M465.67,239.85c0.48,2.17,0.87,4.35,1.17,6.56l3.38-0.45
			c-0.31-2.3-0.72-4.58-1.22-6.85L465.67,239.85L465.67,239.85z M467.44,253.04c0.11,2.25,0.1,4.49,0.11,6.74l3.4-0.02
			c-0.01-2.29,0-4.59-0.11-6.88L467.44,253.04L467.44,253.04z M471.34,266.37l1.72-2.94c1.99,1.16,3.97,2.29,5.91,3.54l-1.85,2.86
			C475.22,268.62,473.29,267.51,471.34,266.37L471.34,266.37z M482.57,273.67c1.74,1.34,3.48,2.79,5.09,4.29l2.31-2.5
			c-1.7-1.57-3.49-3.07-5.32-4.48L482.57,273.67z M492.37,282.68c1.5,1.64,2.93,3.34,4.28,5.1l2.71-2.07
			c-1.41-1.84-2.9-3.62-4.47-5.33L492.37,282.68z M500.46,293.24c1.21,1.9,2.27,3.79,3.33,5.77l3.03-1.56
			c-1.07-2.06-2.23-4.07-3.48-6.03L500.46,293.24L500.46,293.24z M506.61,305.04c0.85,2.06,1.6,4.13,2.28,6.26l3.25-1.02
			c-0.7-2.21-1.5-4.39-2.38-6.54L506.61,305.04L506.61,305.04z M510.62,317.73c0.48,2.17,0.88,4.35,1.18,6.56l3.37-0.45
			c-0.31-2.3-0.72-4.58-1.23-6.84L510.62,317.73L510.62,317.73z M512.41,330.92c0.1,2.22,0.12,4.44,0.03,6.66l3.4,0.13
			c0.09-2.32,0.07-4.64-0.04-6.95L512.41,330.92L512.41,330.92z M511.9,344.22c-0.28,2.21-0.65,4.39-1.12,6.57l3.33,0.72
			c0.49-2.27,0.87-4.55,1.17-6.85L511.9,344.22z M509.1,357.24c-0.64,2.11-1.4,4.23-2.24,6.27l3.15,1.29
			c0.87-2.14,1.66-4.34,2.34-6.55L509.1,357.24L509.1,357.24z M504.09,369.56c-1.01,1.98-2.11,3.91-3.29,5.8l2.89,1.81
			c1.23-1.97,2.37-3.98,3.43-6.05L504.09,369.56L504.09,369.56z M497.03,380.85c-1.36,1.8-2.79,3.5-4.23,5.24l2.62,2.17
			c1.48-1.78,2.93-3.51,4.32-5.36L497.03,380.85L497.03,380.85z M491.05,393.5l3.21-1.15c0.77,2.16,1.57,4.31,2.26,6.49l-3.25,1.03
			C492.59,397.73,491.81,395.62,491.05,393.5z M495.01,406.3c0.48,2.17,0.88,4.35,1.18,6.55l3.38-0.45
			c-0.32-2.31-0.72-4.57-1.23-6.85L495.01,406.3L495.01,406.3z M496.8,419.49c0.1,2.23,0.12,4.44,0.03,6.66l3.4,0.13
			c0.09-2.32,0.08-4.63-0.03-6.95L496.8,419.49L496.8,419.49z M496.29,432.79c-0.28,2.2-0.65,4.4-1.12,6.56l3.33,0.73
			c0.49-2.26,0.88-4.56,1.17-6.86L496.29,432.79z M493.48,445.8c-0.66,2.13-1.4,4.21-2.24,6.28l3.15,1.29
			c0.87-2.15,1.65-4.33,2.34-6.55L493.48,445.8L493.48,445.8z M488.46,458.13c-1.01,1.97-2.1,3.92-3.28,5.8l2.88,1.81
			c1.23-1.96,2.37-3.99,3.43-6.05L488.46,458.13L488.46,458.13z M481.41,469.42c-1.34,1.78-2.75,3.49-4.23,5.15l2.54,2.27
			c1.55-1.73,3.02-3.52,4.41-5.37L481.41,469.42L481.41,469.42z M472.53,479.33c-1.62,1.52-3.31,2.97-5.05,4.34l2.1,2.68
			c1.82-1.43,3.59-2.95,5.28-4.53L472.53,479.33L472.53,479.33z M462.07,487.55c-1.87,1.22-3.77,2.34-5.73,3.4l1.61,3
			c2.05-1.1,4.03-2.28,5.98-3.55L462.07,487.55z M450.34,493.84c-2.07,0.89-4.1,1.63-6.23,2.36l1.06,3.24
			c2.21-0.74,4.36-1.55,6.51-2.46L450.34,493.84L450.34,493.84z M437.7,498.02c-2.2,0.52-4.36,0.91-6.59,1.31l0.61,3.35
			c2.29-0.42,4.51-0.82,6.76-1.35L437.7,498.02z M424.72,503.56l3.19,1.18c-0.79,2.14-1.56,4.31-2.42,6.43l-3.15-1.29
			C423.2,507.83,423.96,505.62,424.72,503.56L424.72,503.56z M419.57,515.94c-1.01,1.98-2.1,3.91-3.28,5.8l2.89,1.8
			c1.23-1.97,2.37-3.98,3.42-6.05L419.57,515.94L419.57,515.94z M412.53,527.23c-1.33,1.77-2.75,3.5-4.23,5.15l2.53,2.28
			c1.55-1.72,3.03-3.53,4.42-5.38L412.53,527.23L412.53,527.23z M403.64,537.14c-1.63,1.52-3.31,2.96-5.06,4.34l2.1,2.68
			c1.83-1.44,3.58-2.94,5.28-4.53L403.64,537.14z M393.17,545.36c-1.83,1.19-3.79,2.39-5.73,3.4l1.6,3.01
			c2.05-1.1,4.04-2.28,5.99-3.55L393.17,545.36L393.17,545.36z M381.44,551.64c-2.04,0.88-4.12,1.66-6.23,2.36l1.07,3.23
			c2.2-0.73,4.37-1.55,6.5-2.47L381.44,551.64L381.44,551.64z M368.8,555.83c-2.17,0.51-4.34,0.93-6.54,1.26l0.49,3.37
			c2.3-0.34,4.57-0.78,6.83-1.32L368.8,555.83L368.8,555.83z M355.63,557.78c-2.24,0.12-4.42,0.17-6.66,0.11l-0.09,3.4
			c2.34,0.06,4.62,0,6.96-0.12L355.63,557.78z M342.33,557.43c-2.19-0.25-4.42-0.59-6.58-1.04l-0.69,3.34
			c2.27,0.46,4.57,0.83,6.87,1.09L342.33,557.43L342.33,557.43z M329.29,554.78c-2.12-0.61-4.25-1.36-6.3-2.16l-1.25,3.17
			c2.14,0.84,4.37,1.62,6.58,2.26L329.29,554.78L329.29,554.78z M316.9,549.93c-2.02-1-3.93-2.09-5.9-3.21l-1.69,2.96
			c2.02,1.15,3.99,2.27,6.07,3.3L316.9,549.93L316.9,549.93z M303.4,545.43l1.68,2.96c-1.98,1.13-3.96,2.29-5.97,3.37l-1.6-3
			C299.49,547.69,301.44,546.54,303.4,545.43z M291.51,551.65c-2.04,0.88-4.11,1.67-6.22,2.37l1.06,3.23
			c2.2-0.73,4.37-1.56,6.5-2.47L291.51,551.65L291.51,551.65z M278.87,555.84c-2.16,0.51-4.34,0.93-6.54,1.26l0.49,3.37
			c2.3-0.35,4.57-0.78,6.83-1.32L278.87,555.84z M265.71,557.79c-2.22,0.13-4.44,0.17-6.66,0.11l-0.1,3.4
			c2.31,0.07,4.65,0.02,6.96-0.11L265.71,557.79z M252.4,557.43c-2.19-0.24-4.42-0.6-6.58-1.04l-0.69,3.34
			c2.25,0.46,4.59,0.85,6.87,1.09L252.4,557.43L252.4,557.43z M239.36,554.77c-2.13-0.62-4.24-1.36-6.3-2.16l-1.24,3.17
			c2.15,0.84,4.36,1.61,6.58,2.25L239.36,554.77L239.36,554.77z M226.97,549.92c-1.99-0.99-3.94-2.05-5.84-3.21l-1.77,2.91
			c1.99,1.2,4.01,2.31,6.09,3.35L226.97,549.92L226.97,549.92z M215.58,543.02c-1.82-1.33-3.48-2.71-5.2-4.16l-2.25,2.55
			c1.75,1.53,3.56,2.98,5.43,4.35L215.58,543.02z M205.57,534.26c-1.54-1.6-3.01-3.27-4.4-5l-2.66,2.13
			c1.46,1.81,2.99,3.55,4.59,5.23L205.57,534.26L205.57,534.26z M197.23,523.89c-1.24-1.85-2.39-3.74-3.47-5.69l-2.98,1.64
			c1.13,2.03,2.33,4.01,3.62,5.94L197.23,523.89z M190.79,512.24c-0.92-2.07-1.69-4.11-2.48-6.23l-3.19,1.18
			c0.81,2.19,1.61,4.29,2.56,6.42L190.79,512.24L190.79,512.24z M178.47,498.87l5.12,0.93l-0.61,3.35l-5.12-0.93L178.47,498.87
			c-0.52-0.1-1.03-0.19-1.54-0.3l-0.68,3.34c0.54,0.11,1.07,0.21,1.61,0.31l5.73-2.42L178.47,498.87L178.47,498.87z M170.47,496.97
			c-2.13-0.63-4.23-1.34-6.31-2.15l-1.24,3.17c2.16,0.84,4.36,1.59,6.58,2.25L170.47,496.97L170.47,496.97z M158.07,492.13
			c-2-0.99-3.93-2.05-5.84-3.21l0,0l-1.78,2.9c1.93,1.21,4.05,2.34,6.1,3.35L158.07,492.13L158.07,492.13z M146.69,485.22
			c-1.79-1.31-3.53-2.71-5.19-4.17l-2.25,2.56c1.75,1.53,3.55,2.98,5.43,4.35L146.69,485.22z M136.68,476.45
			c-1.54-1.61-3-3.27-4.4-5.01l-2.66,2.13c1.46,1.81,2.98,3.55,4.59,5.22C134.22,478.8,136.68,476.45,136.68,476.45z M128.34,466.08
			c-1.24-1.85-2.39-3.74-3.47-5.69l-2.98,1.64c1.12,2.03,2.33,4.01,3.62,5.93L128.34,466.08z M121.9,454.43
			c-0.93-2.08-1.65-4.08-2.45-6.19l-3.22,1.1c0.76,2.19,1.61,4.35,2.56,6.47L121.9,454.43L121.9,454.43z M117.55,441.85
			c-0.54-2.16-0.99-4.33-1.34-6.52l-3.36,0.53c0.37,2.29,0.84,4.56,1.4,6.82L117.55,441.85L117.55,441.85z M115.44,428.71
			c-0.16-2.22-0.22-4.43-0.19-6.66l-3.4-0.05c-0.03,2.33,0.03,4.63,0.2,6.95L115.44,428.71z M115.63,415.4
			c0.22-2.21,0.55-4.41,0.96-6.59l-3.34-0.65c-0.44,2.26-0.78,4.6-1.01,6.89L115.63,415.4z M118.12,402.33
			c0.61-2.17,1.32-4.24,2.08-6.36l-3.21-1.15c-0.78,2.19-1.52,4.34-2.15,6.58L118.12,402.33L118.12,402.33z M121,388.1l-2.62,2.17
			c-1.45-1.75-2.93-3.5-4.36-5.27l2.66-2.13C118.09,384.64,119.55,386.36,121,388.1L121,388.1z M112.72,377.51
			c-1.24-1.84-2.4-3.74-3.48-5.68l-2.98,1.64c1.04,1.98,2.38,4.08,3.63,5.94L112.72,377.51L112.72,377.51z M106.27,365.87
			c-0.9-2.02-1.73-4.1-2.45-6.19l-3.22,1.1c0.76,2.19,1.61,4.36,2.55,6.47L106.27,365.87L106.27,365.87z M101.93,353.29
			c-0.54-2.17-0.98-4.33-1.34-6.53l-3.36,0.54c0.37,2.3,0.83,4.55,1.39,6.81L101.93,353.29z M99.83,340.15
			c-0.16-2.21-0.22-4.44-0.19-6.66l-3.4-0.06c-0.05,2.3,0.03,4.66,0.19,6.96L99.83,340.15L99.83,340.15z M100.03,326.84
			c0.22-2.21,0.55-4.41,0.96-6.59l-3.35-0.64c-0.43,2.27-0.77,4.58-1,6.88L100.03,326.84z M102.51,313.75
			c0.54-2.08,1.31-4.31,2.07-6.33l-3.18-1.21c-0.79,2.12-1.59,4.43-2.17,6.61L102.51,313.75L102.51,313.75z M107.19,301.3
			c0.97-2.01,2-3.96,3.14-5.88l-2.93-1.73c-1.18,2-2.26,4.04-3.27,6.13L107.19,301.3L107.19,301.3z M113.96,289.84
			c1.29-1.8,2.66-3.56,4.1-5.24l-2.58-2.22c-1.51,1.75-2.95,3.6-4.29,5.48L113.96,289.84z M122.61,279.73
			c1.59-1.56,3.23-3.04,4.95-4.46l-2.16-2.63c-1.79,1.48-3.51,3.03-5.17,4.65L122.61,279.73L122.61,279.73z M132.87,271.25
			c1.86-1.28,3.72-2.43,5.66-3.56l-1.72-2.94c-2.01,1.18-3.94,2.37-5.86,3.69L132.87,271.25L132.87,271.25z M144.57,262.39
			l-3.4-0.02c0.01-2.28,0.01-4.55,0.04-6.83l3.41,0.05C144.57,257.86,144.58,260.13,144.57,262.39z M144.99,248.95
			c0.22-2.21,0.54-4.41,0.95-6.59l-3.34-0.64c-0.43,2.28-0.77,4.58-1,6.89L144.99,248.95z M147.46,235.87
			c0.6-2.14,1.29-4.25,2.08-6.33l-3.19-1.2c-0.82,2.18-1.53,4.37-2.17,6.61L147.46,235.87L147.46,235.87z M152.15,223.42
			c0.96-2,2.01-3.97,3.14-5.87l-2.93-1.74c-1.18,1.99-2.28,4.05-3.28,6.14L152.15,223.42L152.15,223.42z M158.93,211.96
			c1.39-1.78,2.62-3.5,4.11-5.24l-2.58-2.22c-1.55,1.81-2.84,3.61-4.29,5.48L158.93,211.96z M167.58,201.85
			c1.56-1.56,3.25-3.04,4.95-4.46l-2.16-2.63c-1.77,1.46-3.55,3.04-5.17,4.66L167.58,201.85L167.58,201.85z M177.84,193.37
			c1.83-1.26,3.71-2.45,5.64-3.55l-1.69-2.96c-2.02,1.15-3.97,2.38-5.88,3.7L177.84,193.37L177.84,193.37z M189.4,186.77
			c2.02-0.93,4.07-1.77,6.16-2.52l-1.14-3.21c-2.19,0.79-4.33,1.66-6.44,2.63L189.4,186.77L189.4,186.77z M201.93,182.27
			c2.15-0.56,4.31-1.04,6.51-1.42l-0.57-3.36c-2.29,0.4-4.55,0.89-6.8,1.48L201.93,182.27z M215.04,180.01
			c2.22-0.18,4.43-0.27,6.66-0.27l0.01-3.4c-2.33,0-4.63,0.09-6.95,0.28L215.04,180.01z M228.35,180.05c2.23,0.2,4.41,0.5,6.62,0.87
			l0.57-3.36c-2.29-0.39-4.57-0.7-6.88-0.91L228.35,180.05z M243.15,181.15l-2.6-2.2c1.47-1.73,2.95-3.47,4.42-5.2l2.58,2.22
			C246.06,177.67,244.61,179.42,243.15,181.15z M252.09,171.09c1.59-1.56,3.23-3.04,4.95-4.47l-2.17-2.63
			c-1.79,1.48-3.5,3.03-5.16,4.66L252.09,171.09z M262.34,162.6c1.84-1.27,3.7-2.43,5.64-3.55l-1.68-2.96
			c-2.01,1.14-3.99,2.39-5.89,3.7L262.34,162.6L262.34,162.6z M273.91,156.01c2.03-0.93,4.07-1.76,6.17-2.52l-1.15-3.21
			c-2.2,0.79-4.32,1.66-6.44,2.63L273.91,156.01L273.91,156.01z M286.43,151.52c2.16-0.56,4.32-1.03,6.51-1.41l-0.58-3.36
			c-2.29,0.4-4.55,0.89-6.79,1.47L286.43,151.52z M299.55,149.27c2.22-0.18,4.43-0.28,6.66-0.27l0.01-3.41
			c-2.32-0.01-4.64,0.09-6.95,0.28L299.55,149.27L299.55,149.27z M312.87,149.29c2.2,0.18,4.43,0.49,6.6,0.87l0.6-3.35
			c-2.26-0.4-4.61-0.72-6.9-0.91L312.87,149.29L312.87,149.29z M325.98,151.6c2.14,0.56,4.27,1.24,6.35,2l1.17-3.2
			c-2.17-0.79-4.41-1.5-6.64-2.09L325.98,151.6z M338.48,156.13c2,0.93,4.01,1.95,5.91,3.07l1.71-2.95c-1.98-1.16-4.1-2.24-6.18-3.2
			L338.48,156.13L338.48,156.13z M350.02,162.77c1.82,1.26,3.59,2.62,5.29,4.04l2.19-2.61c-1.77-1.48-3.63-2.91-5.53-4.22
			L350.02,162.77z"/>
		<text transform="matrix(1.2167 0 0 1 205.2151 480.5546)" class="st3 st4 st5">Gatime Tradicionale</text>
		<g>
			<g>
				<g>
					<path class="st6" d="M189.88,373.88c0.16,0.04,0.32,0.12,0.49,0.15c-0.67-0.13-0.04-0.8-0.74-1.16
						c-0.95-0.49,0.51-0.52-1.12,0.34c-2.12,1.1-4.06,2.68-6.21,3.8c-4.91,2.56-9.61,4.91-13.9,8.46
						c-5.68,4.7-12.97,13.08-9.08,20.98c5.79,11.76,26.6,10.32,37.05,10.26c19.8-0.13,39.66-0.78,59.44,0.43
						c19.66,1.21,38.48,5.37,57.64,9.66c18.99,4.25,38.56,6.85,58.03,7.08c13.54,0.15,30.23,0.07,42.21-7.27
						c5.28-3.23,6.2-7.55,9.67-12.27c4.9-6.67,13.43-7.74,20.95-9.37c10.99-2.38,26.11-8.61,21.96-22.73
						c-4.58-15.59-25.25-20-39.03-21.23c-3.84-0.34-3.82,5.66,0,6c10.6,0.95,31.78,4.66,33.6,18.38
						c1.65,12.5-18.72,13.56-26.67,15.69c-6.36,1.7-12.15,4.72-15.99,10.23c-3.35,4.8-4.07,8.57-9.65,11.28
						c-12.69,6.17-29.08,5.66-42.8,5.14c-18.78-0.71-37.52-3.48-55.78-7.92c-17.6-4.27-35.35-7.48-53.45-8.64
						c-18.16-1.16-36.39-0.67-54.57-0.51c-9.27,0.08-18.89,0.63-27.98-1.6c-3.35-0.82-8.81-2.33-9.61-6.35
						c-1.6-8.04,11.5-15.78,17.15-18.63c4.09-2.06,12.85-5.1,13.88-10.56c0.49-2.6-1.36-4.88-3.88-5.42
						C187.71,367.28,186.1,373.06,189.88,373.88L189.88,373.88z"/>
				</g>
			</g>
			<g>
				<g>
					<path class="st6" d="M151.98,321.15c-9.12-3.12-13.09,4.26-13.84,12.44c-0.71,7.8-0.12,23.88,11.71,21.41
						c4.67-0.97,9.23-2.78,13.87-3.93c3.32-0.83,6.05-1.52,9.34-0.1c1.99,0.86,3.62,2.58,5.87,1.53c2.6-1.21,3.39-5.12,3.75-7.58
						c0.81-5.55,1.5-13.94-1.39-19.11c-2.23-3.99-4.68-2.41-8.13-0.97C167,327.42,158.02,323.18,151.98,321.15
						c-3.67-1.23-5.24,4.56-1.6,5.79c9.4,3.15,19.54,7.42,28.68,1.59c-1.01,0-2.02,0-3.03,0c-0.61-0.27,0.16-0.15,0.26,0.76
						c0.32,2.96,0.74,5.61,0.73,8.65c-0.01,2.6-0.95,5.85-0.71,8.29c0.08,0.84-0.91,1.31-0.41,1.09c1.01,0,2.02,0,3.03,0
						c-5.31-3.46-10.26-3.63-16.22-2.18c-3.54,0.87-7.07,1.84-10.55,2.9c-1.25,0.38-2.93,1.27-4.27,1.22
						c-5.47-0.18-4.12-13.1-3.69-16.42c0.59-4.54,1.58-7.48,6.18-5.91C154.05,328.19,155.62,322.4,151.98,321.15z"/>
				</g>
			</g>
			<g>
				<g>
					<path class="st6" d="M461.77,328.73c4.25-1.07,5.35,1.25,5.71,5.56c0.28,3.4,0.85,16.08-4.81,15.82
						c-1.44-0.06-3.13-1.04-4.45-1.52c-3.28-1.19-6.59-2.3-9.93-3.32c-6.15-1.89-11.27-2.12-17.14,0.97c1.01,0,2.02,0,3.03,0
						c0.6,0.29-0.1-0.09-0.24-1.09c-0.38-2.69-0.3-5.25-0.13-7.97c0.13-2.07,0.13-4.16,0.69-6.18c0.16-0.58,0.8-1.64,0.78-2.16
						c-0.03-0.88-2.97-1.14-1.8,0.19c2.9,3.3,9.28,3.28,13.13,2.7C451.69,330.97,456.77,329.95,461.77,328.73
						c3.75-0.92,2.16-6.7-1.6-5.79c-2.78,0.68-5.59,1.26-8.4,1.81c-3.09,0.6-6.95,1.85-10.12,1.33c-3.48-0.57-6.75-4.93-10.11-2.09
						c-3.53,2.98-3.49,9.07-3.74,13.2c-0.24,3.92-1.04,10.51,2.43,13.54c3.15,2.76,7.78-1.55,11.51-1.04
						c5.76,0.79,11.51,3.58,16.98,5.47c9.5,3.27,13.55-4.35,14.52-12.93c1.08-9.56-0.65-22.39-13.06-19.28
						C456.43,323.88,458.01,329.67,461.77,328.73z"/>
				</g>
			</g>
			<g>
				<g>
					<path class="st6" d="M429.67,362.92c0.59-7.18,3.11-14,4.06-21.13c0.95-7.17,0.65-14.76,0.67-21.99c0.03-9.82,1-26.6-9.4-32.18
						c-5.04-2.7-11.85-3.5-17.46-4.28c-7.52-1.05-15.11-1.3-22.7-1.27c-14.55,0.06-28.96-0.15-43.51-0.62
						c-31.55-1.02-63.13-0.59-94.67,0.33c-7.24,0.21-14.49,0.45-21.73,0.69c-8.52,0.29-17.31,0.01-25.78,0.92
						c-10.64,1.14-18.02,8.49-19.51,18.91c-1.2,8.37-1.4,16.9-2.38,25.29c-0.67,5.7-0.68,11.65-0.29,17.37
						c0.8,11.87,4.4,23.45,14.03,31.09c2.99,2.38,7.27-1.84,4.24-4.24c-17.95-14.24-11.63-40.08-10.49-59.7
						c0.35-6.07,0.12-13.31,4.62-17.96c4.76-4.92,11.38-4.82,17.73-5.04c13.84-0.5,27.69-0.99,41.54-1.38
						c26.94-0.76,53.89-1.16,80.83-0.59c13.61,0.29,27.25,1.42,40.85,1.18c13.06-0.22,26.32-0.89,39.25,1.37
						c6.6,1.15,14.27,1.8,16.79,8.92c2.31,6.51,2.06,14.36,2.04,21.19c-0.02,7.54,0.44,15.55-0.85,22.99
						c-1.17,6.76-3.31,13.26-3.87,20.13C423.36,366.77,429.36,366.75,429.67,362.92L429.67,362.92z"/>
				</g>
			</g>
			<g>
				<g>
					<path class="st6" d="M410.68,285.52c-6.7,1.83-11.62,5.25-16.98,9.47c-7,5.51-16.06,7.38-24.69,5.23
						c-7.41-1.85-12.51-6.14-17.93-11.23c-4.25-3.99-8.68-6.97-14.66-7.2c-3.86-0.14-3.86,5.86,0,6
						c7.39,0.28,11.82,7.46,17.22,11.59c5.27,4.03,11.59,6.6,18.17,7.44c6.87,0.88,13.85-0.37,20.04-3.49
						c3.21-1.62,5.76-3.93,8.55-6.14c3.56-2.83,7.48-4.67,11.87-5.88C415.99,290.28,414.41,284.49,410.68,285.52L410.68,285.52z"/>
				</g>
			</g>
			<path class="st7" d="M192.49,376.16"/>
			<g>
				<g>
					<g>
						<g>
							<g>
								<g>
									<text transform="matrix(1.2167 0 0 1 197.3665 358.6296)" class="st8 st4 st9">n&apos;Piteri</text>
									<text transform="matrix(1.2166 -0.0131 0.0108 0.9999 199.4369 360.4731)" class="st10 st4 st9">n&apos;Piteri</text>
								</g>
								<polygon class="st8" points="227.38,342.55 229.34,344.16 233.34,344.16 231.49,342.55 								"/>
							</g>
							<path class="st2" d="M231.85,356.48l2.54,0.94l-0.73,1.94C233.66,359.37,232.39,358.23,231.85,356.48z"/>
						</g>
						<path class="st2" d="M236.11,321.89l1.66,1.44c0,0,1.48-1.03,2.48-2.17L236.11,321.89z"/>
					</g>
					<path class="st2" d="M243.79,336.51c0,0,0.55,1.56,1.11,2.3l0.73-0.97L243.79,336.51z"/>
				</g>
				<path class="st2" d="M276.26,320.6l-1.61-1c0,0-1.98,1.37-5.45,0c0,0,1.91,1.74,5.37,1.53
					C274.56,321.12,275.25,321.21,276.26,320.6z"/>
			</g>
			<path class="st2" d="M310.65,304.93l-1.42-0.63c0,0,0.3,1.06,0.32,1.11c0.02,0.05,1.32,0.26,1.32,0.26L310.65,304.93z"/>
			<path class="st2" d="M328.98,322.13c0,0-0.01,0.47,0.26,0.84l1.41-0.41L328.98,322.13z"/>
			<path class="st2" d="M331.64,311.12l1.51,0.41l0.33,0.96C333.48,312.49,332.93,311.77,331.64,311.12z"/>
			<path class="st2" d="M341.3,334.15l1.8,0.3c0,0,0.03-0.34-0.26-0.69L341.3,334.15z"/>
			<polygon class="st2" points="406.37,342.46 408.02,342.46 408.26,342.05 			"/>
			<g>
				<g>
					<path class="st11" d="M387.57,408.32c5.99-22.38-12.71-28.68-40.41-30.1c-22.38-1.14-49.93,2.18-72.99,2.87
						c-17.49,0.52-47.83-1.61-39.68-24.74c5.84,20.98,55.51,13.59,70.54,12.89c26.86-1.25,54.68-3.49,78,3.28
						C410.19,380.4,409.04,403.21,387.57,408.32L387.57,408.32z"/>
					<path class="st12" d="M385.08,407.06c5.99-22.38-12.71-28.68-40.41-30.1c-22.38-1.14-49.93,2.18-72.99,2.87
						c-17.49,0.52-47.83-1.61-39.68-24.74c5.84,20.98,55.51,13.59,70.54,12.89c26.86-1.25,54.68-3.49,78,3.28
						C407.7,379.14,406.55,401.95,385.08,407.06L385.08,407.06z"/>
				</g>
				<path class="st2" d="M385.06,407.05l2.51,1.27c0,0,0.41-1.3,0.5-2.13L385.06,407.05z"/>
			</g>
			<path class="st2" d="M232.05,355.08l2.49,1.26l-0.73,2.62C233.81,358.96,232.69,357.26,232.05,355.08z"/>
			<polygon class="st2" points="367.1,342.46 367.01,342.46 367.4,341.95 			"/>
			<polygon class="st10" points="368.88,342.49 369.13,342.2 368.99,342.48 			"/>
			<path class="st10" d="M373.01,342.43"/>
			<path class="st10" d="M373.02,342.51"/>
			<polygon class="st10" points="372.97,342.63 373.42,341.76 372.97,342.45 			"/>
		</g>
	</g>
</g>
</svg>
