<?xml version="1.0" encoding="utf-8"?>
<!-- Generator: Adobe Illustrator 24.1.1, SVG Export Plug-In . SVG Version: 6.00 Build 0)  -->
<svg version="1.1" id="Layer_1" xmlns="http://www.w3.org/2000/svg" xmlns:xlink="http://www.w3.org/1999/xlink" x="0px" y="0px"
	 viewBox="0 0 595.28 841.89" style="enable-background:new 0 0 595.28 841.89;" xml:space="preserve">
<style type="text/css">
	.st0{fill:#FDFADB;}
	.st1{fill:#3A2416;}
	.st2{fill:#F7B753;}
	.st3{fill:#88491F;stroke:#88491F;stroke-width:0.5;stroke-linecap:round;stroke-linejoin:round;stroke-miterlimit:10;}
	.st4{font-family:'Ginchiest';}
	.st5{font-size:27.8354px;}
	.st6{fill:#88491F;}
	.st7{fill:#FFFFFF;}
	.st8{fill:#F5B553;}
	.st9{font-size:72.8516px;}
	.st10{fill:#392417;}
	.st11{fill:#F3B352;}
	.st12{fill-rule:evenodd;clip-rule:evenodd;fill:#392417;}
</style>
<path class="st0" d="M291.39,120.28c14.05,0,27.39,3.1,39.38,8.66c11.58,5.37,21.88,13.04,30.33,22.41
	c12.48-1.75,25.29-0.99,37.6,2.34c12.75,3.46,24.97,9.67,35.74,18.72c10.76,9.04,19,20.02,24.62,32
	c5.42,11.56,8.39,24.06,8.84,36.68c10.7,6.71,20.04,15.53,27.32,26.01c7.54,10.85,12.91,23.47,15.35,37.35
	c2.44,13.85,1.7,27.55-1.68,40.33c-3.27,12.36-9.02,23.86-16.77,33.8c3.88,11.98,5.35,24.75,4.2,37.49
	c-1.19,13.17-5.18,26.3-12.2,38.49v0.02c-7.03,12.2-16.39,22.22-27.18,29.83c-10.42,7.34-22.19,12.44-34.53,15.08
	c-4.73,11.7-11.8,22.43-20.85,31.45c-9.36,9.32-20.84,16.81-34.06,21.63c-13.23,4.82-26.82,6.48-39.95,5.37
	c-12.71-1.08-25.01-4.76-36.16-10.69c-11.15,5.93-23.45,9.61-36.16,10.69c-13.13,1.12-26.72-0.54-39.95-5.37
	c-13.22-4.82-24.7-12.3-34.06-21.63c-9.05-9.02-16.12-19.75-20.85-31.45c-12.34-2.64-24.12-7.74-34.53-15.08
	c-10.78-7.6-20.13-17.63-27.18-29.85c-7.03-12.19-11.02-25.32-12.2-38.49c-1.15-12.74,0.33-25.5,4.2-37.49
	c-7.75-9.95-13.49-21.44-16.77-33.8c-3.39-12.78-4.12-26.48-1.68-40.33c2.44-13.88,7.81-26.5,15.35-37.35
	c7.29-10.48,16.62-19.3,27.32-26.01c0.45-12.62,3.42-25.12,8.84-36.68c5.62-11.99,13.85-22.96,24.62-32
	c10.77-9.05,22.99-15.27,35.74-18.72c12.31-3.34,25.12-4.09,37.6-2.34c8.44-9.38,18.75-17.04,30.33-22.41
	C263.99,123.39,277.34,120.28,291.39,120.28L291.39,120.28z"/>
<g>
	<path class="st1" d="M291.91,117.72c14.35,0,27.97,3.17,40.22,8.84c11.83,5.48,22.35,13.3,30.97,22.86
		c12.75-1.78,25.83-1.01,38.4,2.39c13.02,3.53,25.5,9.86,36.5,19.1c10.99,9.22,19.4,20.41,25.14,32.64
		c5.54,11.79,8.57,24.54,9.03,37.41c10.93,6.84,20.46,15.84,27.9,26.52c7.7,11.06,13.19,23.94,15.68,38.09
		c2.49,14.13,1.74,28.09-1.72,41.13c-3.34,12.61-9.21,24.33-17.12,34.47c3.96,12.22,5.46,25.24,4.29,38.23
		c-1.21,13.44-5.29,26.82-12.46,39.26v0.02c-7.18,12.44-16.73,22.66-27.76,30.42c-10.64,7.49-22.66,12.69-35.27,15.38
		c-4.83,11.93-12.05,22.88-21.29,32.08c-9.56,9.51-21.28,17.14-34.78,22.06c-13.51,4.92-27.39,6.61-40.8,5.47
		c-12.98-1.1-25.55-4.85-36.93-10.9c-11.38,6.04-23.95,9.8-36.93,10.9c-13.41,1.14-27.29-0.55-40.8-5.47
		c-13.5-4.91-25.23-12.55-34.78-22.06c-9.25-9.2-16.46-20.15-21.29-32.08c-12.6-2.69-24.63-7.89-35.27-15.38
		c-11.01-7.75-20.56-17.98-27.76-30.44c-7.18-12.43-11.25-25.82-12.46-39.26c-1.17-12.99,0.33-26.01,4.29-38.23
		C79,371.02,73.13,359.3,69.78,346.69c-3.46-13.04-4.21-27-1.72-41.13c2.49-14.15,7.98-27.03,15.68-38.09
		c7.44-10.68,16.97-19.69,27.9-26.52c0.46-12.87,3.49-25.62,9.03-37.41c5.74-12.22,14.15-23.41,25.14-32.64
		c11-9.23,23.48-15.57,36.5-19.1c12.57-3.4,25.65-4.17,38.4-2.39c8.62-9.56,19.15-17.38,30.97-22.86
		C263.93,120.89,277.56,117.72,291.91,117.72L291.91,117.72z M327.86,135.81c-10.92-5.06-23.09-7.88-35.95-7.88
		s-25.03,2.82-35.95,7.88c-11.35,5.26-21.36,12.93-29.37,22.36l-1.88,2.22l-2.84-0.48c-12.2-2.08-24.82-1.52-36.92,1.75
		c-11.61,3.14-22.75,8.81-32.59,17.06c-9.85,8.26-17.36,18.24-22.47,29.13c-5.32,11.34-8.06,23.65-8.13,36.02l-0.02,2.91l-2.5,1.46
		c-10.66,6.24-19.96,14.77-27.12,25.06c-6.88,9.88-11.78,21.38-14,34.02c-2.23,12.66-1.57,25.15,1.52,36.78
		c3.2,12.08,9.03,23.27,16.93,32.81l1.85,2.24l-0.98,2.73c-4.17,11.68-5.82,24.19-4.7,36.64c1.08,11.98,4.72,23.94,11.15,35.06
		c6.41,11.1,14.94,20.23,24.8,27.17c10.25,7.22,21.9,12.05,34.05,14.27l2.88,0.53l1.01,2.73c4.3,11.6,11.08,22.24,19.94,31.05
		c8.54,8.49,19.01,15.31,31.07,19.7c12.05,4.39,24.47,5.89,36.49,4.87c12.48-1.06,24.51-4.85,35.25-10.96l2.51-1.43l2.51,1.43
		c10.74,6.12,22.77,9.9,35.25,10.96c12.02,1.02,24.44-0.49,36.49-4.87c12.06-4.39,22.54-11.21,31.07-19.7
		c8.86-8.82,15.64-19.45,19.94-31.05l1.01-2.73l2.88-0.53c12.15-2.21,23.8-7.05,34.05-14.27c9.85-6.93,18.38-16.07,24.8-27.19
		l0.01,0c6.42-11.12,10.06-23.07,11.14-35.05c1.12-12.45-0.53-24.96-4.7-36.64l-0.98-2.73l1.85-2.24
		c7.91-9.53,13.73-20.72,16.93-32.81c3.08-11.63,3.75-24.12,1.52-36.78c-2.23-12.64-7.12-24.14-14-34.02
		c-7.16-10.29-16.46-18.82-27.12-25.06l-2.5-1.46l-0.02-2.91c-0.07-12.37-2.81-24.68-8.13-36.02
		c-5.11-10.88-12.62-20.86-22.47-29.13c-9.84-8.25-20.98-13.92-32.59-17.06c-12.1-3.28-24.71-3.83-36.92-1.75l-2.84,0.48l-1.89-2.22
		C349.22,148.75,339.21,141.07,327.86,135.81L327.86,135.81z"/>
	<path class="st2" d="M346.1,158.9c2.55,2.53,4.71,5.1,7.04,7.86l2.6-2.2c-2.4-2.83-4.62-5.47-7.24-8.07L346.1,158.9L346.1,158.9z
		 M360.43,168.96l-0.57-3.36c2.28-0.39,4.51-0.79,6.81-1.07l0.41,3.38C364.83,168.2,362.66,168.58,360.43,168.96L360.43,168.96z
		 M373.71,167.4c2.22-0.08,4.44-0.06,6.66,0.05l0.17-3.4c-2.32-0.12-4.63-0.13-6.95-0.05L373.71,167.4L373.71,167.4z M387.01,168.07
		c2.19,0.3,4.4,0.7,6.55,1.2l0.76-3.32c-2.25-0.52-4.55-0.93-6.84-1.25L387.01,168.07L387.01,168.07z M399.98,171.03
		c2.09,0.64,4.23,1.47,6.24,2.31l1.32-3.14c-2.1-0.88-4.34-1.75-6.53-2.42L399.98,171.03L399.98,171.03z M412.25,176.19
		c1.97,1.04,3.88,2.16,5.75,3.36l1.85-2.86c-1.96-1.26-3.95-2.42-6-3.51L412.25,176.19z M423.44,183.39
		c1.75,1.36,3.47,2.79,5.09,4.3l2.31-2.5c-1.71-1.57-3.48-3.06-5.31-4.48L423.44,183.39z M433.24,192.41
		c1.5,1.64,2.92,3.34,4.28,5.1l2.71-2.06c-1.41-1.84-2.91-3.63-4.47-5.33L433.24,192.41z M441.34,202.97
		c1.2,1.86,2.31,3.8,3.33,5.77l3.02-1.57c-1.07-2.05-2.23-4.08-3.48-6.02L441.34,202.97L441.34,202.97z M447.5,214.76
		c0.85,2.06,1.61,4.13,2.28,6.25l3.25-1.02c-0.69-2.21-1.5-4.4-2.39-6.54L447.5,214.76L447.5,214.76z M451.51,227.45
		c0.48,2.17,0.87,4.35,1.17,6.56l3.38-0.45c-0.31-2.3-0.72-4.58-1.22-6.85L451.51,227.45L451.51,227.45z M453.29,240.65
		c0.11,2.25,0.1,4.49,0.11,6.74l3.4-0.02c-0.01-2.29,0-4.59-0.11-6.88L453.29,240.65L453.29,240.65z M457.19,253.98l1.72-2.94
		c1.99,1.16,3.97,2.29,5.91,3.54l-1.85,2.86C461.07,256.22,459.13,255.11,457.19,253.98L457.19,253.98z M468.41,261.27
		c1.74,1.34,3.48,2.79,5.09,4.29l2.31-2.5c-1.7-1.57-3.49-3.07-5.32-4.48L468.41,261.27z M478.21,270.28
		c1.5,1.64,2.93,3.34,4.28,5.1l2.71-2.07c-1.41-1.84-2.9-3.62-4.47-5.33L478.21,270.28z M486.31,280.84
		c1.21,1.9,2.27,3.79,3.33,5.77l3.03-1.56c-1.07-2.06-2.23-4.07-3.48-6.03L486.31,280.84L486.31,280.84z M492.45,292.65
		c0.85,2.06,1.6,4.13,2.28,6.26l3.25-1.02c-0.7-2.21-1.5-4.39-2.38-6.54L492.45,292.65L492.45,292.65z M496.47,305.34
		c0.48,2.17,0.88,4.35,1.18,6.56l3.37-0.45c-0.31-2.3-0.72-4.58-1.23-6.84L496.47,305.34L496.47,305.34z M498.25,318.53
		c0.1,2.22,0.12,4.44,0.03,6.66l3.4,0.13c0.09-2.32,0.07-4.64-0.04-6.95L498.25,318.53L498.25,318.53z M497.75,331.83
		c-0.28,2.21-0.65,4.39-1.12,6.57l3.33,0.72c0.49-2.27,0.87-4.55,1.17-6.85L497.75,331.83z M494.95,344.84
		c-0.64,2.11-1.4,4.23-2.24,6.27l3.15,1.29c0.87-2.14,1.66-4.34,2.34-6.55L494.95,344.84L494.95,344.84z M489.94,357.17
		c-1.01,1.98-2.11,3.91-3.29,5.8l2.88,1.81c1.23-1.97,2.37-3.98,3.43-6.05L489.94,357.17L489.94,357.17z M482.88,368.45
		c-1.36,1.8-2.79,3.5-4.23,5.24l2.62,2.17c1.48-1.78,2.93-3.51,4.32-5.36L482.88,368.45L482.88,368.45z M476.9,381.11l3.21-1.15
		c0.77,2.16,1.57,4.31,2.26,6.49l-3.25,1.03C478.44,385.33,477.65,383.22,476.9,381.11z M480.86,393.91
		c0.48,2.17,0.88,4.35,1.18,6.55l3.38-0.45c-0.32-2.31-0.72-4.57-1.23-6.85L480.86,393.91L480.86,393.91z M482.65,407.09
		c0.1,2.23,0.12,4.44,0.03,6.66l3.4,0.13c0.09-2.32,0.08-4.63-0.03-6.95L482.65,407.09L482.65,407.09z M482.13,420.39
		c-0.28,2.2-0.65,4.4-1.12,6.56l3.33,0.73c0.49-2.26,0.88-4.56,1.17-6.86L482.13,420.39z M479.32,433.4
		c-0.66,2.13-1.4,4.21-2.24,6.28l3.15,1.29c0.87-2.15,1.65-4.33,2.34-6.55L479.32,433.4L479.32,433.4z M474.31,445.73
		c-1.01,1.97-2.1,3.92-3.28,5.8l2.88,1.81c1.23-1.96,2.37-3.99,3.43-6.05L474.31,445.73L474.31,445.73z M467.26,457.02
		c-1.34,1.78-2.75,3.49-4.23,5.15l2.54,2.27c1.55-1.73,3.02-3.52,4.41-5.37L467.26,457.02L467.26,457.02z M458.38,466.94
		c-1.62,1.52-3.31,2.97-5.05,4.34l2.1,2.68c1.82-1.43,3.59-2.95,5.28-4.53L458.38,466.94L458.38,466.94z M447.91,475.16
		c-1.87,1.22-3.77,2.34-5.73,3.4l1.61,3c2.05-1.1,4.03-2.28,5.98-3.55L447.91,475.16z M436.18,481.45c-2.07,0.89-4.1,1.63-6.23,2.36
		l1.06,3.24c2.21-0.74,4.36-1.55,6.51-2.46L436.18,481.45L436.18,481.45z M423.55,485.63c-2.2,0.52-4.36,0.91-6.59,1.31l0.61,3.35
		c2.29-0.42,4.51-0.82,6.76-1.35L423.55,485.63z M410.57,491.16l3.19,1.18c-0.79,2.14-1.56,4.31-2.42,6.43l-3.15-1.29
		C409.05,495.44,409.81,493.22,410.57,491.16L410.57,491.16z M405.42,503.54c-1.01,1.98-2.1,3.91-3.28,5.8l2.89,1.8
		c1.23-1.97,2.37-3.98,3.42-6.05L405.42,503.54L405.42,503.54z M398.38,514.84c-1.33,1.77-2.75,3.5-4.23,5.15l2.53,2.28
		c1.55-1.72,3.03-3.53,4.42-5.38L398.38,514.84L398.38,514.84z M389.49,524.74c-1.63,1.52-3.31,2.96-5.06,4.34l2.1,2.68
		c1.83-1.44,3.58-2.94,5.28-4.53L389.49,524.74z M379.02,532.96c-1.83,1.19-3.79,2.39-5.73,3.4l1.6,3.01
		c2.05-1.1,4.04-2.28,5.99-3.55L379.02,532.96L379.02,532.96z M367.29,539.25c-2.04,0.88-4.12,1.66-6.23,2.36l1.07,3.23
		c2.2-0.73,4.37-1.55,6.5-2.47L367.29,539.25L367.29,539.25z M354.65,543.43c-2.17,0.51-4.34,0.93-6.54,1.26l0.49,3.37
		c2.3-0.34,4.57-0.78,6.83-1.32L354.65,543.43L354.65,543.43z M341.48,545.39c-2.24,0.12-4.42,0.17-6.66,0.11l-0.09,3.4
		c2.34,0.06,4.62,0,6.96-0.12L341.48,545.39z M328.18,545.04c-2.19-0.25-4.42-0.59-6.58-1.04l-0.69,3.34
		c2.27,0.46,4.57,0.83,6.87,1.09L328.18,545.04L328.18,545.04z M315.14,542.39c-2.12-0.61-4.25-1.36-6.3-2.16l-1.25,3.17
		c2.14,0.84,4.37,1.62,6.58,2.26L315.14,542.39L315.14,542.39z M302.74,537.53c-2.02-1-3.93-2.09-5.9-3.21l-1.69,2.96
		c2.02,1.15,3.99,2.27,6.07,3.3L302.74,537.53L302.74,537.53z M289.24,533.03l1.68,2.96c-1.98,1.13-3.96,2.29-5.97,3.37l-1.6-3
		C285.34,535.29,287.29,534.14,289.24,533.03z M277.35,539.25c-2.04,0.88-4.11,1.67-6.22,2.37l1.06,3.23
		c2.2-0.73,4.37-1.56,6.5-2.47L277.35,539.25L277.35,539.25z M264.72,543.44c-2.16,0.51-4.34,0.93-6.54,1.26l0.49,3.37
		c2.3-0.35,4.57-0.78,6.83-1.32L264.72,543.44z M251.56,545.39c-2.22,0.13-4.44,0.17-6.66,0.11l-0.1,3.4
		c2.31,0.07,4.65,0.02,6.96-0.11L251.56,545.39z M238.25,545.03c-2.19-0.24-4.42-0.6-6.58-1.04l-0.69,3.34
		c2.25,0.46,4.59,0.85,6.87,1.09L238.25,545.03L238.25,545.03z M225.21,542.38c-2.13-0.62-4.24-1.36-6.3-2.16l-1.24,3.17
		c2.15,0.84,4.36,1.61,6.58,2.25L225.21,542.38L225.21,542.38z M212.81,537.53c-1.99-0.99-3.94-2.05-5.84-3.21l-1.77,2.91
		c1.99,1.2,4.01,2.31,6.09,3.35L212.81,537.53L212.81,537.53z M201.43,530.63c-1.82-1.33-3.48-2.71-5.2-4.16l-2.25,2.55
		c1.75,1.53,3.56,2.98,5.43,4.35L201.43,530.63z M191.42,521.86c-1.54-1.6-3.01-3.27-4.4-5l-2.66,2.13
		c1.46,1.81,2.99,3.55,4.59,5.23L191.42,521.86L191.42,521.86z M183.07,511.49c-1.24-1.85-2.39-3.74-3.47-5.69l-2.98,1.64
		c1.13,2.03,2.33,4.01,3.62,5.94L183.07,511.49z M176.64,499.84c-0.92-2.07-1.69-4.11-2.48-6.23l-3.19,1.18
		c0.81,2.19,1.61,4.29,2.56,6.42L176.64,499.84L176.64,499.84z M164.32,486.47l5.12,0.93l-0.61,3.35l-5.12-0.93L164.32,486.47
		c-0.52-0.1-1.03-0.19-1.54-0.3l-0.68,3.34c0.54,0.11,1.07,0.21,1.61,0.31l5.73-2.42L164.32,486.47L164.32,486.47z M156.31,484.57
		c-2.13-0.63-4.23-1.34-6.31-2.15l-1.24,3.17c2.16,0.84,4.36,1.59,6.58,2.25L156.31,484.57L156.31,484.57z M143.92,479.73
		c-2-0.99-3.93-2.05-5.84-3.21l0,0l-1.78,2.9c1.93,1.21,4.05,2.34,6.1,3.35L143.92,479.73L143.92,479.73z M132.54,472.82
		c-1.79-1.31-3.53-2.71-5.19-4.17l-2.25,2.56c1.75,1.53,3.55,2.98,5.43,4.35L132.54,472.82z M122.53,464.05
		c-1.54-1.61-3-3.27-4.4-5.01l-2.66,2.13c1.46,1.81,2.98,3.55,4.59,5.22C120.07,466.4,122.53,464.05,122.53,464.05z M114.19,453.68
		c-1.24-1.85-2.39-3.74-3.47-5.69l-2.98,1.64c1.12,2.03,2.33,4.01,3.62,5.93L114.19,453.68z M107.74,442.03
		c-0.93-2.08-1.65-4.08-2.45-6.19l-3.22,1.1c0.76,2.19,1.61,4.35,2.56,6.47L107.74,442.03L107.74,442.03z M103.39,429.45
		c-0.54-2.16-0.99-4.33-1.34-6.52l-3.36,0.53c0.37,2.29,0.84,4.56,1.4,6.82L103.39,429.45L103.39,429.45z M101.28,416.32
		c-0.16-2.22-0.22-4.43-0.19-6.66l-3.4-0.05c-0.03,2.33,0.03,4.63,0.2,6.95L101.28,416.32z M101.48,403.01
		c0.22-2.21,0.55-4.41,0.96-6.59l-3.34-0.65c-0.44,2.26-0.78,4.6-1.01,6.89L101.48,403.01z M103.97,389.93
		c0.61-2.17,1.32-4.24,2.08-6.36l-3.21-1.15c-0.78,2.19-1.52,4.34-2.15,6.58L103.97,389.93L103.97,389.93z M106.84,375.71
		l-2.62,2.17c-1.45-1.75-2.93-3.5-4.36-5.27l2.66-2.13C103.93,372.24,105.4,373.97,106.84,375.71L106.84,375.71z M98.57,365.11
		c-1.24-1.84-2.4-3.74-3.48-5.68l-2.98,1.64c1.04,1.98,2.38,4.08,3.63,5.94L98.57,365.11L98.57,365.11z M92.12,353.47
		c-0.9-2.02-1.73-4.1-2.45-6.19l-3.22,1.1c0.76,2.19,1.61,4.36,2.55,6.47L92.12,353.47L92.12,353.47z M87.77,340.89
		c-0.54-2.17-0.98-4.33-1.34-6.53l-3.36,0.54c0.37,2.3,0.83,4.55,1.39,6.81L87.77,340.89z M85.67,327.75
		c-0.16-2.21-0.22-4.44-0.19-6.66l-3.4-0.06c-0.05,2.3,0.03,4.66,0.19,6.96L85.67,327.75L85.67,327.75z M85.88,314.44
		c0.22-2.21,0.55-4.41,0.96-6.59l-3.35-0.64c-0.43,2.27-0.77,4.58-1,6.88L85.88,314.44z M88.36,301.36
		c0.54-2.08,1.31-4.31,2.07-6.33l-3.18-1.21c-0.79,2.12-1.59,4.43-2.17,6.61L88.36,301.36L88.36,301.36z M93.04,288.91
		c0.97-2.01,2-3.96,3.14-5.88l-2.93-1.73c-1.18,2-2.26,4.04-3.27,6.13L93.04,288.91L93.04,288.91z M99.81,277.44
		c1.29-1.8,2.66-3.56,4.1-5.24l-2.58-2.22c-1.51,1.75-2.95,3.6-4.29,5.48L99.81,277.44z M108.45,267.33
		c1.59-1.56,3.23-3.04,4.95-4.46l-2.16-2.63c-1.79,1.48-3.51,3.03-5.17,4.65L108.45,267.33L108.45,267.33z M118.72,258.86
		c1.86-1.28,3.72-2.43,5.66-3.56l-1.72-2.94c-2.01,1.18-3.94,2.37-5.86,3.69L118.72,258.86L118.72,258.86z M130.41,250l-3.4-0.02
		c0.01-2.28,0.01-4.55,0.04-6.83l3.41,0.05C130.42,245.47,130.43,247.74,130.41,250z M130.84,236.55c0.22-2.21,0.54-4.41,0.95-6.59
		l-3.34-0.64c-0.43,2.28-0.77,4.58-1,6.89L130.84,236.55z M133.31,223.48c0.6-2.14,1.29-4.25,2.08-6.33l-3.19-1.2
		c-0.82,2.18-1.53,4.37-2.17,6.61L133.31,223.48L133.31,223.48z M138,211.02c0.96-2,2.01-3.97,3.14-5.87l-2.93-1.74
		c-1.18,1.99-2.28,4.05-3.28,6.14L138,211.02L138,211.02z M144.78,199.56c1.39-1.78,2.62-3.5,4.11-5.24l-2.58-2.22
		c-1.55,1.81-2.84,3.61-4.29,5.48L144.78,199.56z M153.43,189.45c1.56-1.56,3.25-3.04,4.95-4.46l-2.16-2.63
		c-1.77,1.46-3.55,3.04-5.17,4.66L153.43,189.45L153.43,189.45z M163.69,180.97c1.83-1.26,3.71-2.45,5.64-3.55l-1.69-2.96
		c-2.02,1.15-3.97,2.38-5.88,3.7L163.69,180.97L163.69,180.97z M175.25,174.38c2.02-0.93,4.07-1.77,6.16-2.52l-1.14-3.21
		c-2.19,0.79-4.33,1.66-6.44,2.63L175.25,174.38L175.25,174.38z M187.78,169.88c2.15-0.56,4.31-1.04,6.51-1.42l-0.57-3.36
		c-2.29,0.4-4.55,0.89-6.8,1.48L187.78,169.88z M200.89,167.62c2.22-0.18,4.43-0.27,6.66-0.27l0.01-3.4c-2.33,0-4.63,0.09-6.95,0.28
		L200.89,167.62z M214.2,167.65c2.23,0.2,4.41,0.5,6.62,0.87l0.57-3.36c-2.29-0.39-4.57-0.7-6.88-0.91L214.2,167.65z M228.99,168.75
		l-2.6-2.2c1.47-1.73,2.95-3.47,4.42-5.2l2.58,2.22C231.91,165.27,230.46,167.03,228.99,168.75z M237.94,158.69
		c1.59-1.56,3.23-3.04,4.95-4.47l-2.17-2.63c-1.79,1.48-3.5,3.03-5.16,4.66L237.94,158.69z M248.19,150.21
		c1.84-1.27,3.7-2.43,5.64-3.55l-1.68-2.96c-2.01,1.14-3.99,2.39-5.89,3.7L248.19,150.21L248.19,150.21z M259.76,143.62
		c2.03-0.93,4.07-1.76,6.17-2.52l-1.15-3.21c-2.2,0.79-4.32,1.66-6.44,2.63L259.76,143.62L259.76,143.62z M272.28,139.13
		c2.16-0.56,4.32-1.03,6.51-1.41l-0.58-3.36c-2.29,0.4-4.55,0.89-6.79,1.47L272.28,139.13z M285.4,136.87
		c2.22-0.18,4.43-0.28,6.66-0.27l0.01-3.41c-2.32-0.01-4.64,0.09-6.95,0.28L285.4,136.87L285.4,136.87z M298.71,136.9
		c2.2,0.18,4.43,0.49,6.6,0.87l0.6-3.35c-2.26-0.4-4.61-0.72-6.9-0.91L298.71,136.9L298.71,136.9z M311.82,139.2
		c2.14,0.56,4.27,1.24,6.35,2l1.17-3.2c-2.17-0.79-4.41-1.5-6.64-2.09L311.82,139.2z M324.33,143.74c2,0.93,4.01,1.95,5.91,3.07
		l1.71-2.95c-1.98-1.16-4.1-2.24-6.18-3.2L324.33,143.74L324.33,143.74z M335.87,150.37c1.82,1.26,3.59,2.62,5.29,4.04l2.19-2.61
		c-1.77-1.48-3.63-2.91-5.53-4.22L335.87,150.37z"/>
	<text transform="matrix(1.2167 0 0 1 191.0624 468.1591)" class="st3 st4 st5">Gatime Tradicionale</text>
	<g>
		<g>
			<g>
				<path class="st6" d="M175.73,361.48c0.16,0.04,0.32,0.12,0.49,0.15c-0.67-0.13-0.04-0.8-0.74-1.16
					c-0.95-0.49,0.51-0.52-1.12,0.34c-2.12,1.1-4.06,2.68-6.21,3.8c-4.91,2.56-9.61,4.91-13.9,8.46
					c-5.68,4.7-12.97,13.08-9.08,20.98c5.79,11.76,26.6,10.32,37.05,10.26c19.8-0.13,39.66-0.78,59.44,0.43
					c19.66,1.21,38.48,5.37,57.64,9.66c18.99,4.25,38.56,6.85,58.03,7.08c13.54,0.15,30.23,0.07,42.21-7.27
					c5.28-3.23,6.2-7.55,9.67-12.27c4.9-6.67,13.43-7.74,20.95-9.37c10.99-2.38,26.11-8.61,21.96-22.73
					c-4.58-15.59-25.25-20-39.03-21.23c-3.84-0.34-3.82,5.66,0,6c10.6,0.95,31.78,4.66,33.6,18.38
					c1.65,12.5-18.72,13.56-26.67,15.69c-6.36,1.7-12.15,4.72-15.99,10.23c-3.35,4.8-4.07,8.57-9.65,11.28
					c-12.69,6.17-29.08,5.66-42.8,5.14c-18.78-0.71-37.52-3.48-55.78-7.92c-17.6-4.27-35.35-7.48-53.45-8.64
					c-18.16-1.16-36.39-0.67-54.57-0.51c-9.27,0.08-18.89,0.63-27.98-1.6c-3.35-0.82-8.81-2.33-9.61-6.35
					c-1.6-8.04,11.5-15.78,17.15-18.63c4.09-2.06,12.85-5.1,13.88-10.56c0.49-2.6-1.36-4.88-3.88-5.42
					C173.56,354.88,171.95,360.67,175.73,361.48L175.73,361.48z"/>
			</g>
		</g>
		<g>
			<g>
				<path class="st6" d="M137.83,308.76c-9.12-3.12-13.09,4.26-13.84,12.44c-0.71,7.8-0.12,23.88,11.71,21.41
					c4.67-0.97,9.23-2.78,13.87-3.93c3.32-0.83,6.05-1.52,9.34-0.1c1.99,0.86,3.62,2.58,5.87,1.53c2.6-1.21,3.39-5.12,3.75-7.58
					c0.81-5.55,1.5-13.94-1.39-19.11c-2.23-3.99-4.68-2.41-8.13-0.97C152.84,315.03,143.86,310.78,137.83,308.76
					c-3.67-1.23-5.24,4.56-1.6,5.79c9.4,3.15,19.54,7.42,28.68,1.59c-1.01,0-2.02,0-3.03,0c-0.61-0.27,0.16-0.15,0.26,0.76
					c0.32,2.96,0.74,5.61,0.73,8.65c-0.01,2.6-0.95,5.85-0.71,8.29c0.08,0.84-0.91,1.31-0.41,1.09c1.01,0,2.02,0,3.03,0
					c-5.31-3.46-10.26-3.63-16.22-2.18c-3.54,0.87-7.07,1.84-10.55,2.9c-1.25,0.38-2.93,1.27-4.27,1.22
					c-5.47-0.18-4.12-13.1-3.69-16.42c0.59-4.54,1.58-7.48,6.18-5.91C139.89,315.8,141.47,310,137.83,308.76z"/>
			</g>
		</g>
		<g>
			<g>
				<path class="st6" d="M447.61,316.33c4.25-1.07,5.35,1.25,5.71,5.56c0.28,3.4,0.85,16.08-4.81,15.82
					c-1.44-0.06-3.13-1.04-4.45-1.52c-3.28-1.19-6.59-2.3-9.93-3.32c-6.15-1.89-11.27-2.12-17.14,0.97c1.01,0,2.02,0,3.03,0
					c0.6,0.29-0.1-0.09-0.24-1.09c-0.38-2.69-0.3-5.25-0.13-7.97c0.13-2.07,0.13-4.16,0.69-6.18c0.16-0.58,0.8-1.64,0.78-2.16
					c-0.03-0.88-2.97-1.14-1.8,0.19c2.9,3.3,9.28,3.28,13.13,2.7C437.54,318.58,442.62,317.55,447.61,316.33
					c3.75-0.92,2.16-6.7-1.6-5.79c-2.78,0.68-5.59,1.26-8.4,1.81c-3.09,0.6-6.95,1.85-10.12,1.33c-3.48-0.57-6.75-4.93-10.11-2.09
					c-3.53,2.98-3.49,9.07-3.74,13.2c-0.24,3.92-1.04,10.51,2.43,13.54c3.15,2.76,7.78-1.55,11.51-1.04
					c5.76,0.79,11.51,3.58,16.98,5.47c9.5,3.27,13.55-4.35,14.52-12.93c1.08-9.56-0.65-22.39-13.06-19.28
					C442.27,311.49,443.86,317.27,447.61,316.33z"/>
			</g>
		</g>
		<g>
			<g>
				<path class="st6" d="M415.52,350.53c0.59-7.18,3.11-14,4.06-21.13c0.95-7.17,0.65-14.76,0.67-21.99c0.03-9.82,1-26.6-9.4-32.18
					c-5.04-2.7-11.85-3.5-17.46-4.28c-7.52-1.05-15.11-1.3-22.7-1.27c-14.55,0.06-28.96-0.15-43.51-0.62
					c-31.55-1.02-63.13-0.59-94.67,0.33c-7.24,0.21-14.49,0.45-21.73,0.69c-8.52,0.29-17.31,0.01-25.78,0.92
					c-10.64,1.14-18.02,8.49-19.51,18.91c-1.2,8.37-1.4,16.9-2.38,25.29c-0.67,5.7-0.68,11.65-0.29,17.37
					c0.8,11.87,4.4,23.45,14.03,31.09c2.99,2.38,7.27-1.84,4.24-4.24c-17.95-14.24-11.63-40.08-10.49-59.7
					c0.35-6.07,0.12-13.31,4.62-17.96c4.76-4.92,11.38-4.82,17.73-5.04c13.84-0.5,27.69-0.99,41.54-1.38
					c26.94-0.76,53.89-1.16,80.83-0.59c13.61,0.29,27.25,1.42,40.85,1.18c13.06-0.22,26.32-0.89,39.25,1.37
					c6.6,1.15,14.27,1.8,16.79,8.92c2.31,6.51,2.06,14.36,2.04,21.19c-0.02,7.54,0.44,15.55-0.85,22.99
					c-1.17,6.76-3.31,13.26-3.87,20.13C409.21,354.38,415.21,354.35,415.52,350.53L415.52,350.53z"/>
			</g>
		</g>
		<g>
			<g>
				<path class="st6" d="M396.52,273.12c-6.7,1.83-11.62,5.25-16.98,9.47c-7,5.51-16.06,7.38-24.69,5.23
					c-7.41-1.85-12.51-6.14-17.93-11.23c-4.25-3.99-8.68-6.97-14.66-7.2c-3.86-0.14-3.86,5.86,0,6c7.39,0.28,11.82,7.46,17.22,11.59
					c5.27,4.03,11.59,6.6,18.17,7.44c6.87,0.88,13.85-0.37,20.04-3.49c3.21-1.62,5.76-3.93,8.55-6.14
					c3.56-2.83,7.48-4.67,11.87-5.88C401.84,277.89,400.26,272.1,396.52,273.12L396.52,273.12z"/>
			</g>
		</g>
		<path class="st7" d="M178.34,363.76"/>
		<g>
			<g>
				<g>
					<g>
						<g>
							<g>
								<text transform="matrix(1.2167 0 0 1 183.2137 346.2341)" class="st8 st4 st9">n&apos;Piteri</text>
								<text transform="matrix(1.2166 -0.0131 0.0108 0.9999 185.2841 348.0776)" class="st10 st4 st9">n&apos;Piteri</text>
							</g>
							<polygon class="st8" points="213.23,330.16 215.19,331.76 219.18,331.76 217.34,330.16 							"/>
						</g>
						<path class="st2" d="M217.69,344.09l2.54,0.94l-0.73,1.94C219.51,346.97,218.24,345.83,217.69,344.09z"/>
					</g>
					<path class="st2" d="M221.96,309.5l1.66,1.44c0,0,1.48-1.03,2.48-2.17L221.96,309.5z"/>
				</g>
				<path class="st2" d="M229.64,324.12c0,0,0.55,1.56,1.11,2.3l0.73-0.97L229.64,324.12z"/>
			</g>
			<path class="st2" d="M262.1,308.2l-1.61-1c0,0-1.98,1.37-5.45,0c0,0,1.91,1.74,5.37,1.53C260.41,308.73,261.1,308.82,262.1,308.2
				z"/>
		</g>
		<path class="st2" d="M296.5,292.53l-1.42-0.63c0,0,0.3,1.06,0.32,1.11c0.02,0.05,1.32,0.26,1.32,0.26L296.5,292.53z"/>
		<path class="st2" d="M314.83,309.74c0,0-0.01,0.47,0.26,0.84l1.41-0.41L314.83,309.74z"/>
		<path class="st2" d="M317.49,298.72l1.51,0.41l0.33,0.96C319.33,300.09,318.78,299.37,317.49,298.72z"/>
		<path class="st2" d="M327.15,321.75l1.8,0.3c0,0,0.03-0.34-0.26-0.69L327.15,321.75z"/>
		<polygon class="st2" points="392.22,330.06 393.87,330.06 394.11,329.65 		"/>
		<g>
			<g>
				<path class="st11" d="M373.42,395.92c5.99-22.38-12.71-28.68-40.41-30.1c-22.38-1.14-49.93,2.18-72.99,2.87
					c-17.49,0.52-47.83-1.61-39.68-24.74c5.84,20.98,55.51,13.59,70.54,12.89c26.86-1.25,54.68-3.49,78,3.28
					C396.04,368.01,394.88,390.82,373.42,395.92L373.42,395.92z"/>
				<path class="st12" d="M370.93,394.66c5.99-22.38-12.71-28.68-40.41-30.1c-22.38-1.14-49.93,2.18-72.99,2.87
					c-17.49,0.52-47.83-1.61-39.68-24.74c5.84,20.98,55.51,13.59,70.54,12.89c26.86-1.25,54.68-3.49,78,3.28
					C393.55,366.75,392.39,389.56,370.93,394.66L370.93,394.66z"/>
			</g>
			<path class="st2" d="M370.91,394.65l2.51,1.27c0,0,0.41-1.3,0.5-2.13L370.91,394.65z"/>
		</g>
		<path class="st2" d="M217.9,342.69l2.49,1.26l-0.73,2.62C219.66,346.57,218.54,344.87,217.9,342.69z"/>
		<polygon class="st2" points="352.95,330.07 352.85,330.07 353.24,329.55 		"/>
		<polygon class="st10" points="354.73,330.09 354.98,329.81 354.83,330.09 		"/>
		<path class="st10" d="M358.86,330.03"/>
		<path class="st10" d="M358.87,330.12"/>
		<polygon class="st10" points="358.81,330.23 359.27,329.37 358.81,330.06 		"/>
	</g>
</g>
</svg>
